<?xml version="1.0" encoding="UTF-8" standalone="no"?>
<svg width="282px" height="100px" viewBox="0 0 282 100" version="1.1" xmlns="http://www.w3.org/2000/svg" xmlns:xlink="http://www.w3.org/1999/xlink">
    <!-- Generator: Sketch 39.1 (31720) - http://www.bohemiancoding.com/sketch -->
    <title>logo_simple</title>
    <desc>Created with Sketch.</desc>
    <defs></defs>
    <g id="export" stroke="none" stroke-width="1" fill="none" fill-rule="evenodd">
        <g id="logo_simple">
            <g id="Group" transform="translate(0.000000, 2.000000)">
                <path d="M63.0016336,75.4848362 C65.6928961,75.6078435 67.772508,76.7149097 69.3627995,78.6830272 C69.8521199,79.298064 70.4637705,79.7900934 71.1977512,80.1591154 C73.0327029,81.2661816 75.356975,80.5281375 76.457946,78.6830272 C77.4365869,76.9609244 77.1919267,75.1158142 75.4793051,73.3937113 C69.97445,67.8583806 64.5919251,62.4460573 59.08707,56.9107266 C58.8424098,56.664712 58.4754195,56.2956899 58.2307592,56.0496752 C57.4967786,55.1886238 57.6191087,54.0815576 58.3530894,53.3435136 C59.08707,52.6054695 60.188041,52.4824621 61.0443518,53.2205062 C61.4113422,53.4665209 61.6560024,53.8355429 61.9006626,54.0815576 C67.4055177,59.6168883 72.9103727,65.152219 78.4152278,70.6875496 C79.5161988,71.7946158 80.7395,72.4096525 82.3297914,72.0406305 C83.9200829,71.6716084 84.8987238,70.6875496 85.2657141,69.0884541 C85.7550346,67.4893586 85.143384,66.2592851 84.042413,65.152219 C78.2928977,59.493881 72.6657125,53.7125356 66.9161972,48.0541976 C65.9375563,47.0701388 65.8152262,45.8400653 66.671537,44.9790139 C67.5278478,44.1179625 68.7511489,44.2409698 69.7297898,45.2250286 C73.0327029,48.546227 76.3356159,51.744418 79.6385289,55.0656164 C82.0851312,57.5257634 84.5317334,59.9859103 86.9783357,62.4460573 C89.0579476,64.4141749 91.9938703,64.0451528 93.3395015,61.7080132 C94.3181424,60.1089177 93.9511521,58.2638075 92.4831908,56.664712 C84.6540636,48.4232196 76.7026062,40.427742 68.7511489,32.4322644 C68.6288188,32.309257 68.3841586,32.0632423 68.0171682,31.8172277 C67.772508,32.0632423 67.6501779,32.309257 67.4055177,32.5552717 C64.469595,35.5074481 61.6560024,38.4596244 58.5977496,41.2887935 C52.3589138,47.0701388 42.8171651,46.08608 37.4346401,39.3206759 C43.795806,33.0473011 50.1569718,26.650919 56.5181377,20.3775443 C46.2424082,9.9219197 28.0152214,11.3980079 19.8191039,23.452728 C14.6812392,30.9561762 14.5589091,39.0746612 17.6171619,47.3161535 C19.2074533,51.6214107 21.8987158,55.3116311 25.4462891,58.3868148 C27.525901,56.2956899 29.6055129,54.204565 31.6851248,52.1134401 C33.8870668,49.8993078 36.4559992,49.2842711 39.3919219,50.1453225 C42.3278446,51.0063739 44.2851264,52.9744915 45.0191071,55.9266679 C45.2637673,56.664712 45.2637673,57.5257634 45.3860974,58.2638075 C47.7103696,58.2638075 49.7899815,59.0018516 51.3802729,60.7239544 C53.0928945,62.4460573 53.7045451,64.5371822 53.8268752,66.7513145 C59.6987206,66.9973292 62.6346433,71.0565717 62.5123132,75.3618289 C62.7569734,75.3618289 62.8793035,75.4848362 63.0016336,75.4848362 Z" id="Shape" fill="#2F92BA"></path>
                <path d="M96.690869,54.684749 C96.690869,54.684749 96.8131991,54.4387343 96.9355292,54.4387343 C97.1801894,54.0697122 97.4248497,53.8236975 97.6695099,53.4546755 C101.217083,48.1653595 102.807375,42.3840142 101.828734,35.9876321 C100.605433,28.1151618 96.690869,21.9647944 89.5957225,18.274574 C80.5432941,13.4772874 68.1879528,15.0763829 60.3588256,22.3338164 C54.4869802,27.7461398 49.1044552,33.5274851 43.3549399,39.1858231 L43.3549399,39.4318378 C47.0248433,42.1379995 52.5296984,41.5229627 56.0772716,38.078757 C59.3801847,34.8805659 62.5607676,31.5593675 65.8636806,28.2381691 C67.5763022,26.5160663 68.432613,26.5160663 70.1452346,28.2381691 C74.1821283,32.2974116 78.3413521,36.4796615 82.3782458,40.5389039 C87.0267901,45.0901758 91.7976645,49.8874624 96.690869,54.684749 L96.690869,54.684749 Z" id="Path" fill="#1A5F7A"></path>
                <path d="M43.3569242,63.2992231 C41.0326521,65.3903481 38.83071,67.6044803 36.7510981,69.9416199 C35.4054669,71.5407155 35.6501271,73.7548477 37.2404186,75.2309359 C38.7083799,76.7070241 41.0326521,76.7070241 42.5006134,75.3539432 C44.5802253,73.3858257 46.6598372,71.2947008 48.617119,69.2035758 C49.8404202,67.9735024 50.0850804,66.4974142 49.3510997,64.8983187 C48.617119,63.4222305 47.3938179,62.6841864 45.314206,62.4381717 C44.6365721,62.4381717 43.9685748,62.8071937 43.3569242,63.2992231 Z" id="Path" fill="#1A5F7A"></path>
                <path d="M58.5736731,75.0133246 C58.5736729,73.9708849 57.7173623,72.0611483 56.1270708,71.4461115 C54.5367794,70.7080675 53.068818,70.9540822 51.8455169,72.1841556 C49.8882351,74.0292659 47.9309533,75.9973834 46.0960016,77.965501 C44.38338,79.6876039 44.38338,82.0247435 45.8513414,83.623839 C47.563963,85.3459419 49.8882351,85.3459419 51.6008567,83.623839 C53.5581385,81.7787288 55.3930902,79.9336186 57.2280419,77.965501 C58.8366389,75.9800849 58.5736731,75.0133246 58.5736731,75.0133246 Z" id="Path" fill="#1A5F7A"></path>
                <path d="M54.276801,91.528358 C56.5243237,93.8443513 58.9762089,93.1980734 60.19951,91.968 C62.1567918,89.9998824 64.2364037,88.0317648 66.1936855,85.9406399 C67.783977,84.3415444 67.6616469,82.0044048 66.1936855,80.5283166 C64.6033941,78.9292211 62.2791219,78.8062137 60.6888305,80.4053092 C58.6092185,82.3734268 56.6519367,84.3415444 54.6946549,86.4326693 C54.4308748,86.6789009 52.0292783,89.2123647 54.276801,91.528358 Z" id="Path" fill="#1A5F7A"></path>
                <path d="M27.3321628,63.472479 C27.576823,65.3175893 28.4331338,66.5476627 29.9010951,67.2857068 C31.4913866,68.0237509 32.959348,67.7777362 34.1826491,66.5476627 C36.262261,64.5795452 38.2195428,62.4884203 40.1768246,60.5203027 C41.7671161,58.9212072 41.6447859,56.5840675 40.1768246,55.1079794 C38.5865331,53.5088838 36.262261,53.3858765 34.6719695,54.984972 C32.7146877,56.9530896 30.6350758,58.9212072 28.8001241,61.0123321 C28.0661434,61.6273688 27.6991531,62.6114276 27.3321628,63.472479 L27.3321628,63.472479 Z" id="Path" fill="#1A5F7A"></path>
                <path d="M43.2174152,86.8896405 L16.5048783,86.8896405 L16.5048783,86.8456922 L16.464241,86.8456922 L16.464241,72.1457509 L20.4026031,72.1457509 L20.4026031,82.9512784 L40.8377744,82.9512784 C41.1874256,84.3921028 41.8902409,85.6553676 43.015643,86.7061692 C43.0823461,86.7684507 43.1496059,86.8296127 43.2174152,86.8896405 Z M70.4027639,86.8896405 L104.280099,86.8896405 L104.280099,82.9512784 L78.3284209,82.9512784 C78.3013892,82.9729303 78.2741568,82.9944873 78.2467154,83.0159488 C76.1671035,84.7380516 73.7205012,85.230081 71.0292388,84.6150443 C70.9287551,85.4570439 70.7090489,86.2068261 70.4027639,86.8896405 Z M68.0025574,13.5951565 L60.440938,6.03353708 L53.3377022,13.1367728 C52.0985971,12.4553781 50.8229526,11.8707938 49.5220318,11.3827563 L60.4380403,0.466749668 L60.440938,0.469647362 L60.4438357,0.466749668 L72.357103,12.380017 C70.8667179,12.683884 69.4161978,13.0899311 68.0025574,13.5951565 Z M104.528233,50.1208321 L118.015294,63.6078935 L120.800137,60.8230509 L105.835456,45.8583702 C105.51849,47.3150737 105.082226,48.7361576 104.528233,50.1208321 Z M13.344751,47.5600389 L0.081739044,60.8230509 L2.8665816,63.6078935 L14.9436093,51.5308657 C14.320503,50.2607548 13.7845231,48.9388852 13.344751,47.5600389 Z" id="Combined-Shape" fill="#493730"></path>
            </g>
        </g>
    </g>
</svg>