<?xml version="1.0" encoding="UTF-8" standalone="no"?>
<svg width="476px" height="439px" viewBox="0 0 476 439" version="1.1" xmlns="http://www.w3.org/2000/svg" xmlns:xlink="http://www.w3.org/1999/xlink">
    <!-- Generator: Sketch 39.1 (31720) - http://www.bohemiancoding.com/sketch -->
    <title>logo_white</title>
    <desc>Created with Sketch.</desc>
    <defs>
        <filter x="-50%" y="-50%" width="200%" height="200%" filterUnits="objectBoundingBox" id="filter-1">
            <feOffset dx="3" dy="2" in="SourceAlpha" result="shadowOffsetOuter1"></feOffset>
            <feGaussianBlur stdDeviation="19.5" in="shadowOffsetOuter1" result="shadowBlurOuter1"></feGaussianBlur>
            <feColorMatrix values="0 0 0 0 0   0 0 0 0 0   0 0 0 0 0  0 0 0 0.5 0" type="matrix" in="shadowBlurOuter1" result="shadowMatrixOuter1"></feColorMatrix>
            <feMerge>
                <feMergeNode in="shadowMatrixOuter1"></feMergeNode>
                <feMergeNode in="SourceGraphic"></feMergeNode>
            </feMerge>
        </filter>
    </defs>
    <g id="export" stroke="none" stroke-width="1" fill="none" fill-rule="evenodd">
        <g id="logo_white" fill="#FFFFFF">
            <g id="Group-Copy" filter="url(#filter-1)" transform="translate(86.000000, 78.000000)">
                <path d="M26.3907591,271.178791 L26.3907591,242.858568 L18.8128241,242.858568 L18.8128241,277.977689 L43.901933,277.977689 L43.901933,271.178791 L26.3907591,271.178791 Z M75.8521452,249.657467 L75.8521452,242.858568 L48.766148,242.858568 L48.766148,277.977689 L75.8521452,277.977689 L75.8521452,271.178791 L56.344083,271.178791 L56.344083,263.459741 L74.0088637,263.459741 L74.0088637,256.660843 L56.344083,256.660843 L56.344083,249.657467 L75.8521452,249.657467 Z M109.184818,278.591124 C117.786799,278.591124 122.855823,274.143724 122.855823,267.447065 C122.855823,260.954884 117.838001,258.705624 110.260066,257.01868 C104.832626,255.791811 102.733333,254.973898 102.733333,252.417922 C102.733333,250.322021 104.679019,248.635076 107.904762,248.635076 C111.284111,248.635076 114.817067,250.015303 117.940405,252.520161 L121.88298,247.10149 C118.298821,244.034318 113.844224,242.245134 108.109571,242.245134 C100.429231,242.245134 95.1041961,246.692534 95.1041961,253.184715 C95.1041961,259.983613 100.378029,262.079514 107.802357,263.766458 C113.178595,264.993327 115.226686,265.76012 115.226686,268.264977 C115.226686,270.463117 113.281,272.201182 109.492032,272.201182 C105.037435,272.201182 101.248468,270.463117 97.9203206,267.600423 L93.5681282,272.763497 C97.6643093,276.546342 103.091749,278.591124 109.184818,278.591124 L109.184818,278.591124 Z M128.385667,277.977689 L135.963602,277.977689 L135.963602,242.858568 L128.385667,242.858568 L128.385667,277.977689 Z M159.107025,264.124295 L167.299387,264.124295 L167.299387,269.491846 C165.302499,270.923193 162.84479,271.741106 160.438284,271.741106 C154.447619,271.741106 149.378595,266.526913 149.378595,260.392569 C149.378595,254.309344 154.447619,249.095152 160.438284,249.095152 C163.664026,249.095152 167.094578,250.628738 169.193871,253.031356 L174.672513,248.123881 C171.139557,244.443274 165.712117,242.245134 160.438284,242.245134 C150.249033,242.245134 141.595851,250.526499 141.595851,260.392569 C141.595851,270.258639 150.249033,278.591124 160.438284,278.591124 C165.712117,278.591124 171.139557,276.392984 174.672513,272.712377 L174.672513,258.245549 L159.107025,258.245549 L159.107025,264.124295 Z M181.328807,277.977689 L188.85554,277.977689 L188.85554,255.280616 L205.803489,277.977689 L213.381424,277.977689 L213.381424,242.858568 L205.803489,242.858568 L205.803489,265.555642 L188.85554,242.858568 L181.328807,242.858568 L181.328807,277.977689 Z M246.458086,277.977689 L254.957661,277.977689 L240.621028,242.858568 L232.172654,242.858568 L217.836021,277.977689 L226.284394,277.977689 L228.742103,271.945584 L244.000377,271.945584 L246.458086,277.977689 Z M231.148609,266.066837 L236.37124,253.235834 L241.593871,266.066837 L231.148609,266.066837 Z M266.426968,271.178791 L266.426968,242.858568 L258.849033,242.858568 L258.849033,277.977689 L283.938142,277.977689 L283.938142,271.178791 L266.426968,271.178791 Z" id="LE-SIGNAL"></path>
                <path d="M156.202397,185.821371 C162.874949,186.124179 168.031012,188.849449 171.973883,193.694373 C173.187074,195.208412 174.703563,196.419643 176.52335,197.328066 C181.072817,200.053336 186.835475,198.236489 189.565155,193.694373 C191.991538,189.455064 191.384942,184.912948 187.138773,180.673639 C173.490372,167.04729 160.145269,153.723749 146.496868,140.097399 C145.890272,139.491784 144.980379,138.583361 144.373783,137.977745 C142.553996,135.858091 142.857294,133.132821 144.677081,131.315974 C146.496868,129.499128 149.226548,129.19632 151.349633,131.013167 C152.259526,131.618782 152.866122,132.527205 153.472717,133.132821 C167.121118,146.75917 180.769519,160.385519 194.41792,174.011868 C197.1476,176.737138 200.180578,178.251177 204.12345,177.342754 C208.066321,176.43433 210.492704,174.011868 211.402597,170.075368 C212.615788,166.138867 211.099299,163.110789 208.369619,160.385519 C194.114622,146.456362 180.162924,132.224398 165.907927,118.295241 C163.481545,115.872779 163.178247,112.844701 165.301331,110.725047 C167.424416,108.605393 170.457394,108.9082 172.883776,111.330662 C181.072817,119.506472 189.261858,127.379474 197.450898,135.555283 C203.516854,141.611438 209.58281,147.667593 215.648766,153.723749 C220.804829,158.568673 228.083976,157.660249 231.420252,151.906902 C233.846634,147.970401 232.936741,143.428285 229.297167,139.491784 C209.886108,119.203664 190.171751,99.5211598 170.457394,79.8386555 C170.154096,79.5358478 169.547501,78.9302322 168.637607,78.3246167 C168.031012,78.9302322 167.727714,79.5358478 167.121118,80.1414633 C159.841971,87.4088495 152.866122,94.6762357 145.283677,101.640814 C129.815489,115.872779 106.15826,113.450317 92.8131573,96.79589 C108.584643,81.3526943 124.356128,65.6066909 140.127614,50.1634952 C114.650599,24.4248357 69.4592267,28.0585288 49.1382741,57.7336891 C36.3997665,76.2049624 36.0964687,96.1902745 43.6789137,116.478394 C47.6217851,127.076666 54.2943367,136.160899 63.0899729,143.731093 C68.2460355,138.583361 73.4020981,133.435629 78.5581607,128.287897 C84.0175211,122.837357 90.3867749,121.323318 97.6659221,123.442973 C104.945069,125.562627 109.797834,130.407551 111.617621,137.674937 C112.224216,139.491784 112.224216,141.611438 112.527514,143.428285 C118.290172,143.428285 123.446235,145.245131 127.389106,149.48444 C131.635276,153.723749 133.151765,158.87148 133.455062,164.32202 C148.013357,164.927636 155.292504,174.920292 154.989206,185.518563 C155.595802,185.518563 155.8991,185.821371 156.202397,185.821371 Z" id="Shape" fill-opacity="0.85"></path>
                <path d="M239.729427,134.6177 C239.729427,134.6177 240.032725,134.012084 240.336023,134.012084 C240.942618,133.103661 241.549214,132.498046 242.15581,131.589622 C250.951446,118.568889 254.894317,104.336924 252.467935,88.5909206 C249.434957,69.2112241 239.729427,54.0708361 222.138155,44.9866034 C199.694118,33.1771008 169.06104,37.1136017 149.649981,54.9792594 C135.091686,68.3028008 121.746583,82.5347654 107.491587,96.4639223 L107.491587,97.0695378 C116.590521,103.731309 130.238922,102.21727 139.034558,93.7386525 C147.223598,85.8656508 155.109341,77.6898413 163.298382,69.5140318 C167.544551,65.2747232 169.667636,65.2747232 173.913805,69.5140318 C183.922632,79.5066878 194.234757,89.8021516 204.243585,99.7948077 C215.768901,110.998695 227.597515,122.808197 239.729427,134.6177 L239.729427,134.6177 Z" id="Path"></path>
                <path d="M107.496506,155.823991 C101.733848,160.971723 96.2744877,166.422262 91.1184251,172.17561 C87.7821493,176.112111 88.3887449,181.56265 92.3316163,185.196343 C95.9711899,188.830037 101.733848,188.830037 105.373422,185.499151 C110.529484,180.654227 115.685547,175.506495 120.538312,170.358763 C123.57129,167.330686 124.177885,163.696993 122.358098,159.760492 C120.538312,156.126799 117.505334,154.309952 112.349271,153.704337 C110.669187,153.704337 109.012995,154.61276 107.496506,155.823991 Z" id="Path"></path>
                <path d="M145.223983,184.660649 C145.223982,182.09447 143.100898,177.393263 139.158027,175.879224 C135.215155,174.062377 131.575582,174.667993 128.542604,177.69607 C123.689839,182.238187 118.837074,187.083111 114.287607,191.928035 C110.041438,196.167344 110.041438,201.920691 113.681012,205.857192 C117.927181,210.096501 123.689839,210.096501 127.936008,205.857192 C132.788773,201.315076 137.33824,196.772959 141.887707,191.928035 C145.875964,187.040527 145.223983,184.660649 145.223983,184.660649 Z" id="Path"></path>
                <path d="M134.570581,225.315783 C140.142951,231.017074 146.222005,229.426129 149.254983,226.398052 C154.107748,221.553127 159.263811,216.708203 164.116576,211.560471 C168.059447,207.623971 167.756149,201.870623 164.116576,198.23693 C160.173704,194.300429 154.411046,193.997621 150.468175,197.934122 C145.312112,202.779046 140.459347,207.623971 135.606582,212.771702 C134.952582,213.377852 128.998211,219.614491 134.570581,225.315783 Z" id="Path"></path>
                <path d="M67.7656928,156.250496 C68.3722884,160.792612 70.495373,163.82069 74.1349466,165.637536 C78.077818,167.454383 81.7173916,166.848767 84.7503696,163.82069 C89.9064322,158.975766 94.759197,153.828034 99.6119618,148.98311 C103.554833,145.046609 103.251535,139.293261 99.6119618,135.659568 C95.6690904,131.723067 89.9064322,131.42026 85.9635608,135.35676 C81.110796,140.201685 75.9547334,145.046609 71.4052664,150.194341 C69.5854796,151.708379 68.6755862,154.130841 67.7656928,156.250496 L67.7656928,156.250496 Z" id="Path"></path>
                <path d="M107.150616,213.896631 L50.5502414,213.896631 L50.5502414,213.918054 L40.8551572,213.918054 L40.8551572,177.471918 L50.5502414,177.471918 L50.5502414,204.201546 L101.25068,204.201546 C102.117584,207.74843 103.860101,210.858215 106.650355,213.444978 C106.815734,213.598297 106.982494,213.74886 107.150616,213.896631 Z M174.552307,213.896631 L258.5457,213.896631 L258.5457,204.201546 L194.202697,204.201546 C194.135676,204.254847 194.068157,204.307914 194.000121,204.360746 C188.844058,208.600054 182.778102,209.811285 176.105551,208.297247 C175.856418,210.370001 175.311692,212.215743 174.552307,213.896631 Z M122.551996,27.9357715 L142.998105,7.48966167 L142.980736,7.47229179 L149.836195,0.616831978 L149.853565,0.634201862 L149.870935,0.616831978 L156.726395,7.47229179 L156.709025,7.48966167 L179.645556,30.4261925 C175.960616,31.1600642 172.373898,32.1436489 168.878088,33.3696443 L149.853565,14.3451215 L131.994483,32.204204 C128.927045,30.5447908 125.770321,29.1221987 122.551977,27.9357851 Z M33.1650209,117.322746 L0.227213036,150.260554 L7.08267285,157.116014 L37.1479584,127.050728 C35.5986084,123.938702 34.263524,120.700285 33.1650209,117.322746 Z M259.083175,123.574731 L292.624458,157.116014 L299.479918,150.260554 L262.348934,113.12957 C261.552683,116.699045 260.462813,120.181406 259.083175,123.574731 Z" id="Combined-Shape"></path>
            </g>
        </g>
    </g>
</svg>