<?xml version="1.0" encoding="UTF-8" standalone="no"?>
<svg width="124px" height="42px" viewBox="0 0 124 42" version="1.1" xmlns="http://www.w3.org/2000/svg" xmlns:xlink="http://www.w3.org/1999/xlink">
    <!-- Generator: Sketch 39.1 (31720) - http://www.bohemiancoding.com/sketch -->
    <title>logo_mobile</title>
    <desc>Created with Sketch.</desc>
    <defs></defs>
    <g id="export" stroke="none" stroke-width="1" fill="none" fill-rule="evenodd">
        <g id="logo_mobile" fill="#FFFFFF">
            <g id="Group-2" transform="translate(1.000000, 0.500000)">
                <g id="Group-7">
                    <path d="M57.6339307,35.9832943 L57.6339307,29.2320178 L55.8297434,29.2320178 L55.8297434,37.6040881 L61.8030662,37.6040881 L61.8030662,35.9832943 L57.6339307,35.9832943 Z M69.4099101,30.8528117 L69.4099101,29.2320178 L62.9611595,29.2320178 L62.9611595,37.6040881 L69.4099101,37.6040881 L69.4099101,35.9832943 L64.7653468,35.9832943 L64.7653468,34.143145 L68.9710537,34.143145 L68.9710537,32.5223511 L64.7653468,32.5223511 L64.7653468,30.8528117 L69.4099101,30.8528117 Z M77.3458962,37.7503252 C79.3938926,37.7503252 80.6007476,36.6901067 80.6007476,35.0936857 C80.6007476,33.5460104 79.4060831,33.0098079 77.6018958,32.6076561 C76.3097075,32.315182 75.8098989,32.1201993 75.8098989,31.5108783 C75.8098989,31.0112351 76.2731362,30.6090833 77.0411348,30.6090833 C77.8457048,30.6090833 78.6868462,30.9381166 79.430464,31.5352512 L80.369129,30.2434907 C79.5157972,29.5123055 78.4552276,29.0857808 77.0898966,29.0857808 C75.2613284,29.0857808 73.9935211,30.1459993 73.9935211,31.6936746 C73.9935211,33.3144684 75.249138,33.8141116 77.0167539,34.2162635 C78.2967517,34.5087375 78.7843699,34.6915338 78.7843699,35.2886684 C78.7843699,35.8126844 78.3211326,36.2270227 77.4190389,36.2270227 C76.3584694,36.2270227 75.4563757,35.8126844 74.6639961,35.1302449 L73.6278075,36.3610733 C74.6030439,37.2628684 75.8952321,37.7503252 77.3458962,37.7503252 L77.3458962,37.7503252 Z M81.9173168,37.6040881 L83.7215041,37.6040881 L83.7215041,29.2320178 L81.9173168,29.2320178 L81.9173168,37.6040881 Z M89.2315897,34.3015684 L91.1820625,34.3015684 L91.1820625,35.5811425 C90.7066347,35.9223622 90.1214929,36.1173449 89.5485415,36.1173449 C88.1222583,36.1173449 86.9154033,34.8743301 86.9154033,33.4119598 C86.9154033,31.9617758 88.1222583,30.718761 89.5485415,30.718761 C90.3165402,30.718761 91.1333007,31.0843536 91.6331093,31.6571154 L92.937488,30.4872191 C92.0963466,29.6097969 90.8041584,29.0857808 89.5485415,29.0857808 C87.122641,29.0857808 85.0624541,31.0599808 85.0624541,33.4119598 C85.0624541,35.7639388 87.122641,37.7503252 89.5485415,37.7503252 C90.8041584,37.7503252 92.0963466,37.2263091 92.937488,36.3488869 L92.937488,32.9001302 L89.2315897,32.9001302 L89.2315897,34.3015684 Z M94.5222471,37.6040881 L96.314244,37.6040881 L96.314244,32.1933178 L100.349285,37.6040881 L102.153472,37.6040881 L102.153472,29.2320178 L100.349285,29.2320178 L100.349285,34.6427882 L96.314244,29.2320178 L94.5222471,29.2320178 L94.5222471,37.6040881 Z M110.028506,37.6040881 L112.052121,37.6040881 L108.638794,29.2320178 L106.627369,29.2320178 L103.214041,37.6040881 L105.225466,37.6040881 L105.810608,36.1660906 L109.443364,36.1660906 L110.028506,37.6040881 Z M106.38356,34.7646524 L107.626986,31.705861 L108.870412,34.7646524 L106.38356,34.7646524 Z M114.782783,35.9832943 L114.782783,29.2320178 L112.978596,29.2320178 L112.978596,37.6040881 L118.951919,37.6040881 L118.951919,35.9832943 L114.782783,35.9832943 Z" id="LE-SIGNAL"></path>
                    <path d="M64.0914334,16.0116274 L64.0914334,14.7629881 L55.7700414,14.7629881 L55.7700414,26.3550854 L64.0914334,26.3550854 L64.0914334,25.1064461 L57.1034896,25.1064461 L57.1034896,21.0736786 L63.3993907,21.0736786 L63.3993907,19.8250393 L57.1034896,19.8250393 L57.1034896,16.0116274 L64.0914334,16.0116274 Z M66.606418,26.3550854 L67.9229872,26.3550854 L67.9229872,17.5977368 L72.2271555,25.6801452 L76.5313238,17.5977368 L76.5313238,26.3550854 L77.8478929,26.3550854 L77.8478929,14.7629881 L76.5313238,14.7629881 L72.2271555,22.8453965 L67.9229872,14.7629881 L66.606418,14.7629881 L66.606418,26.3550854 Z M84.7851994,26.5406939 C87.485854,26.5406939 88.8699395,25.0389521 88.8699395,23.1997401 C88.8699395,21.1580461 87.2833049,20.3649914 85.072144,19.8419128 C83.0972903,19.3694547 81.9495121,18.9476171 81.9495121,17.7495983 C81.9495121,16.6865675 82.9960157,15.7416513 84.4307385,15.7416513 C85.6460331,15.7416513 86.7938113,16.298477 87.7559195,17.2265197 L88.5661159,16.1972359 C87.5027331,15.2185727 86.2199222,14.5436325 84.4982549,14.5436325 C82.2702148,14.5436325 80.6160639,15.9947539 80.6160639,17.8508393 C80.6160639,19.8587863 82.0845448,20.584347 84.4138594,21.1242991 C86.4393504,21.5967572 87.5364913,22.0860889 87.5364913,23.3178547 C87.5364913,24.3640119 86.6250204,25.3426752 84.8358367,25.3426752 C83.2154439,25.3426752 82.0170284,24.6508615 81.0380411,23.6721982 L80.2109657,24.701482 C81.375623,25.8488803 82.8778621,26.5406939 84.7851994,26.5406939 L84.7851994,26.5406939 Z" id="EMS"></path>
                    <path d="M27.27368,32.6777124 C28.4387392,32.7309628 29.3390122,33.2102166 30.0274562,34.0622232 C30.2392852,34.3284752 30.5040713,34.5414769 30.8218147,34.7012281 C31.6161733,35.1804819 32.6223608,34.8609794 33.0989759,34.0622232 C33.5226338,33.3167174 33.4167193,32.5179612 32.675318,31.7724554 C30.2922424,29.3761868 27.962124,27.0331686 25.5790484,24.6369 C25.473134,24.5303991 25.3142623,24.3706479 25.2083478,24.2641471 C24.8906044,23.8913942 24.9435616,23.4121405 25.261305,23.092638 C25.5790484,22.7731355 26.0556636,22.7198851 26.4263642,23.0393876 C26.5852359,23.1458884 26.6911504,23.3056396 26.7970649,23.4121405 C29.1801405,25.8084091 31.563216,28.2046777 33.9462916,30.6009463 C34.4229068,31.0802 34.9524791,31.3464521 35.6409232,31.1867008 C36.3293672,31.0269496 36.7530251,30.6009463 36.9118968,29.9086909 C37.1237258,29.2164355 36.8589396,28.6839314 36.3823245,28.2046777 C33.8933344,25.7551587 31.4573016,23.2523892 28.9683115,20.8028702 C28.5446536,20.3768669 28.4916964,19.8443628 28.862397,19.4716099 C29.2330977,19.098857 29.76267,19.1521074 30.1863279,19.5781107 C31.6161733,21.0158719 33.0460186,22.4003826 34.475864,23.8381438 C35.5350087,24.903152 36.5941534,25.9681603 37.6532981,27.0331686 C38.5535711,27.8851752 39.8245448,27.725424 40.4070744,26.7136661 C40.8307322,26.0214107 40.6718605,25.2226545 40.0363737,24.5303991 C36.6471106,20.9626214 33.2048903,17.5013446 29.76267,14.0400677 C29.7097128,13.9868173 29.6037983,13.8803164 29.4449266,13.7738156 C29.3390122,13.8803164 29.2860549,13.9868173 29.1801405,14.0933181 C27.9091668,15.371328 26.6911504,16.6493379 25.3672195,17.8740975 C22.6664005,20.3768669 18.5357361,19.9508636 16.2056178,17.0220908 C18.959394,14.3063197 21.7131703,11.5372982 24.4669465,8.82152715 C20.0185387,4.295242 12.1279107,4.93424696 8.57977589,10.1527875 C6.355572,13.4010627 6.30261477,16.91559 7.62654565,20.4833677 C8.31498971,22.3471322 9.48004889,23.9446446 11.0158087,25.2759049 C11.9160817,24.3706479 12.8163547,23.4653909 13.7166277,22.5601338 C14.669858,21.6016264 15.7819599,21.3353743 17.0529336,21.7081272 C18.3239072,22.0808801 19.171223,22.9328867 19.4889664,24.2108967 C19.5948808,24.5303991 19.5948808,24.903152 19.6478381,25.2226545 C20.6540256,25.2226545 21.5542986,25.542157 22.2427426,26.2876628 C22.9841439,27.0331686 23.2489301,27.9384256 23.3018873,28.8969331 C25.8438346,29.0034339 27.1148083,30.7606975 27.061851,32.624462 C27.1677655,32.624462 27.2207227,32.6777124 27.27368,32.6777124 Z" id="Shape"></path>
                    <path d="M41.8578958,23.6732646 C41.8578958,23.6732646 41.9108531,23.5667638 41.9638103,23.5667638 C42.0697248,23.4070125 42.1756392,23.3005117 42.2815537,23.1407605 C43.8173135,20.8509927 44.5057576,18.3482232 44.0820997,15.5792017 C43.5525274,12.1711753 41.8578958,9.5086546 38.7863762,7.91114219 C34.8675408,5.83437606 29.51886,6.52663144 26.1295969,9.66840584 C23.5876496,12.011424 21.2575313,14.5141935 18.7685412,16.9637125 L18.7685412,17.0702133 C20.3572583,18.2417224 22.7403339,17.9754703 24.2760937,16.4844588 C25.705939,15.099948 27.0828272,13.6621869 28.5126725,12.2244257 C29.2540738,11.4789199 29.6247745,11.4789199 30.3661758,12.2244257 C32.1137645,13.9816893 33.9143105,15.7922034 35.6618993,17.549467 C37.6742742,19.5197323 39.7396064,21.5964985 41.8578958,23.6732646 L41.8578958,23.6732646 Z" id="Path"></path>
                    <path d="M18.7694002,27.4025078 C17.7632127,28.3077648 16.8099825,29.2662722 15.9097095,30.2780301 C15.3271799,30.9702855 15.4330944,31.9287929 16.1215384,32.5677979 C16.7570253,33.2068028 17.7632127,33.2068028 18.3986996,32.6210483 C19.2989726,31.7690417 20.1992456,30.8637846 21.0465613,29.9585276 C21.5761337,29.4260235 21.6820482,28.7870185 21.3643047,28.0947631 C21.0465613,27.4557582 20.516989,27.1362557 19.616716,27.0297549 C19.3233653,27.0297549 19.0341864,27.1895061 18.7694002,27.4025078 Z" id="Path"></path>
                    <path d="M25.3567967,32.473593 C25.3567966,32.0223164 24.986096,31.1955831 24.297652,30.929331 C23.6092079,30.6098285 22.9737211,30.7163294 22.4441487,31.2488335 C21.596833,32.0475897 20.7495172,32.8995963 19.9551587,33.7516029 C19.2137574,34.4971087 19.2137574,35.5088666 19.8492442,36.201122 C20.5906455,36.9466278 21.596833,36.9466278 22.3382343,36.201122 C23.18555,35.4023658 23.9799086,34.6036096 24.7742671,33.7516029 C25.4706357,32.8921077 25.3567967,32.473593 25.3567967,32.473593 Z" id="Path"></path>
                    <path d="M23.4966622,39.6230225 C24.4696245,40.625626 25.5310562,40.3458495 26.0606285,39.8133454 C26.9079443,38.9613388 27.8082173,38.1093321 28.6555331,37.2040751 C29.3439771,36.5118197 29.2910199,35.5000619 28.6555331,34.8610569 C27.967089,34.1688015 26.9609015,34.1155511 26.2724575,34.8078065 C25.3721845,35.6598131 24.5248687,36.5118197 23.6775529,37.4170768 C23.5633614,37.5236715 22.5236998,38.6204189 23.4966622,39.6230225 Z" id="Path"></path>
                    <path d="M11.8322116,27.477511 C11.9381261,28.2762672 12.3088267,28.8087713 12.9443135,29.1282738 C13.6327576,29.4477763 14.2682444,29.3412755 14.7978168,28.8087713 C15.6980898,27.9567647 16.5454056,27.0515077 17.3927213,26.1995011 C18.0811654,25.5072457 18.0282081,24.4954878 17.3927213,23.8564829 C16.7042773,23.1642275 15.6980898,23.1109771 15.0096457,23.8032325 C14.16233,24.6552391 13.262057,25.5072457 12.4676984,26.4125027 C12.149955,26.6787548 11.9910833,27.1047581 11.8322116,27.477511 L11.8322116,27.477511 Z" id="Path"></path>
                    <path d="M18.7090062,37.6149016 L7.14503328,37.6149016 L7.14503328,37.5958762 L7.12744121,37.5958762 L7.12744121,31.2322079 L8.83237522,31.2322079 L8.83237522,35.9099676 L17.6788494,35.9099676 C17.8302149,36.5337067 18.1344666,37.0805795 18.6216581,37.5354761 C18.6505342,37.562438 18.6796512,37.5889153 18.7090062,37.6149016 Z M30.4776613,37.6149016 L45.1433063,37.6149016 L45.1433063,35.9099676 L33.9087094,35.9099676 C33.8970105,35.9193407 33.8852214,35.9286729 33.8733419,35.9379637 C32.9730689,36.6834695 31.9139242,36.8964711 30.748865,36.630219 C30.7053652,36.9947243 30.6102534,37.3193083 30.4776613,37.6149016 Z M29.4386015,5.88540212 L26.1651438,2.61194432 L23.0901222,5.68696584 C22.5537085,5.39198723 22.0014766,5.13891819 21.4383026,4.9276447 L26.1638893,0.202057952 L26.1651438,0.203312377 L26.1663982,0.202057952 L31.3237032,5.35936296 C30.678509,5.49090828 30.0505726,5.66668784 29.4386015,5.88540212 Z M45.2507246,21.6975252 L51.0893319,27.5361325 L52.2949023,26.3305621 L45.8166272,19.852287 C45.6794113,20.4829003 45.4905504,21.0980936 45.2507246,21.6975252 Z M5.7770005,20.5889468 L0.0353851861,26.3305621 L1.24095558,27.5361325 L6.46915319,22.3079349 C6.19940775,21.7580984 5.96737975,21.1858553 5.7770005,20.5889468 Z" id="Combined-Shape"></path>
                </g>
            </g>
        </g>
    </g>
</svg>