<?xml version="1.0" encoding="UTF-8" standalone="no"?>
<svg width="282px" height="100px" viewBox="0 0 282 100" version="1.1" xmlns="http://www.w3.org/2000/svg" xmlns:xlink="http://www.w3.org/1999/xlink">
    <!-- Generator: Sketch 39.1 (31720) - http://www.bohemiancoding.com/sketch -->
    <title>logo_header</title>
    <desc>Created with Sketch.</desc>
    <defs></defs>
    <g id="export" stroke="none" stroke-width="1" fill="none" fill-rule="evenodd">
        <g id="logo_header">
            <g id="Group-2" transform="translate(0.000000, 2.000000)">
                <g id="Group" transform="translate(135.000000, 33.000000)" fill="#493730">
                    <path d="M5.13318146,50.1206617 L5.13318146,34.5253534 L0.965546263,34.5253534 L0.965546263,53.8646617 L14.7637979,53.8646617 L14.7637979,50.1206617 L5.13318146,50.1206617 Z M32.335449,38.2693534 L32.335449,34.5253534 L17.4389692,34.5253534 L17.4389692,53.8646617 L32.335449,53.8646617 L32.335449,50.1206617 L21.6066044,50.1206617 L21.6066044,45.8699549 L31.3216999,45.8699549 L31.3216999,42.1259549 L21.6066044,42.1259549 L21.6066044,38.2693534 L32.335449,38.2693534 Z M50.6674119,54.2024662 C55.3982411,54.2024662 58.1860511,51.7533835 58.1860511,48.0656842 C58.1860511,44.4905865 55.4264008,43.2519699 51.2587656,42.3230075 C48.2738377,41.6473985 47.1192901,41.1969925 47.1192901,39.7894737 C47.1192901,38.6353083 48.1893586,37.7063459 49.9634195,37.7063459 C51.8219595,37.7063459 53.7649786,38.466406 55.4827202,39.8457744 L57.6510168,36.8618346 C55.679838,35.172812 53.2299444,34.1875489 50.0760583,34.1875489 C45.8521037,34.1875489 42.9234952,36.6366316 42.9234952,40.2117293 C42.9234952,43.9557293 45.823944,45.1098947 49.9071001,46.0388571 C52.8638683,46.7144662 53.9902562,47.1367218 53.9902562,48.5160902 C53.9902562,49.7265564 52.9201877,50.6836692 50.8363701,50.6836692 C48.3864764,50.6836692 46.3026588,49.7265564 44.4722785,48.1501353 L42.0787043,50.9933233 C44.33148,53.0764511 47.3164079,54.2024662 50.6674119,54.2024662 L50.6674119,54.2024662 Z M61.2272984,53.8646617 L65.3949336,53.8646617 L65.3949336,34.5253534 L61.2272984,34.5253534 L61.2272984,53.8646617 Z M78.1231167,46.2359098 L82.6286683,46.2359098 L82.6286683,49.1916992 C81.5304401,49.9799098 80.1787746,50.4303158 78.8552689,50.4303158 C75.5605843,50.4303158 72.7727743,47.5589774 72.7727743,44.1809323 C72.7727743,40.8310376 75.5605843,37.9596992 78.8552689,37.9596992 C80.6293298,37.9596992 82.5160295,38.8042105 83.6705771,40.1272782 L86.6836647,37.4248421 C84.7406456,35.398015 81.7557177,34.1875489 78.8552689,34.1875489 C73.2514891,34.1875489 68.4925003,38.7479098 68.4925003,44.1809323 C68.4925003,49.6139549 73.2514891,54.2024662 78.8552689,54.2024662 C81.7557177,54.2024662 84.7406456,52.992 86.6836647,50.9651729 L86.6836647,42.9986165 L78.1231167,42.9986165 L78.1231167,46.2359098 Z M90.3444254,53.8646617 L94.4839009,53.8646617 L94.4839009,41.3658947 L103.804761,53.8646617 L107.972396,53.8646617 L107.972396,34.5253534 L103.804761,34.5253534 L103.804761,47.0241203 L94.4839009,34.5253534 L90.3444254,34.5253534 L90.3444254,53.8646617 Z M126.16356,53.8646617 L130.83807,53.8646617 L122.953355,34.5253534 L118.307005,34.5253534 L110.422289,53.8646617 L115.06864,53.8646617 L116.420305,50.5429173 L124.811895,50.5429173 L126.16356,53.8646617 Z M117.743811,47.3056241 L120.6161,40.2398797 L123.488389,47.3056241 L117.743811,47.3056241 Z M137.145842,50.1206617 L137.145842,34.5253534 L132.978207,34.5253534 L132.978207,53.8646617 L146.776459,53.8646617 L146.776459,50.1206617 L137.145842,50.1206617 Z" id="LE-SIGNAL"></path>
                    <path d="M20.0498785,3.98652632 L20.0498785,1.10219549 L0.827635951,1.10219549 L0.827635951,27.8796992 L20.0498785,27.8796992 L20.0498785,24.9953684 L3.9078736,24.9953684 L3.9078736,15.6797594 L18.4512742,15.6797594 L18.4512742,12.7954286 L3.9078736,12.7954286 L3.9078736,3.98652632 L20.0498785,3.98652632 Z M25.8594407,27.8796992 L28.900688,27.8796992 L28.900688,7.65040602 L38.8432272,26.3206015 L48.7857665,7.65040602 L48.7857665,27.8796992 L51.8270138,27.8796992 L51.8270138,1.10219549 L48.7857665,1.10219549 L38.8432272,19.772391 L28.900688,1.10219549 L25.8594407,1.10219549 L25.8594407,27.8796992 Z M67.8520477,28.3084511 C74.0905037,28.3084511 77.2877124,24.8394586 77.2877124,20.5909173 C77.2877124,15.8746466 73.6226195,14.0427068 68.5148836,12.834406 C63.9530127,11.7430376 61.3016689,10.7686015 61.3016689,8.00120301 C61.3016689,5.54562406 63.7190706,3.36288722 67.0332503,3.36288722 C69.8405555,3.36288722 72.4918993,4.64914286 74.7143493,6.79290226 L76.5858861,4.4152782 C74.129494,2.15458647 71.1662274,0.595488722 67.1892117,0.595488722 C62.0424855,0.595488722 58.2214312,3.94754887 58.2214312,8.23506767 C58.2214312,12.8733835 61.6135917,14.5494135 66.99426,15.7966917 C71.673102,16.8880602 74.2074747,18.018406 74.2074747,20.8637594 C74.2074747,23.2803609 72.1019958,25.5410526 67.9690187,25.5410526 C64.2259451,25.5410526 61.4576303,23.9429774 59.19619,21.6822857 L57.2856628,24.0599098 C59.975997,26.7103759 63.4461381,28.3084511 67.8520477,28.3084511 L67.8520477,28.3084511 Z" id="EMS"></path>
                </g>
                <g id="Group">
                    <path d="M63.0016336,75.4848362 C65.6928961,75.6078435 67.772508,76.7149097 69.3627995,78.6830272 C69.8521199,79.298064 70.4637705,79.7900934 71.1977512,80.1591154 C73.0327029,81.2661816 75.356975,80.5281375 76.457946,78.6830272 C77.4365869,76.9609244 77.1919267,75.1158142 75.4793051,73.3937113 C69.97445,67.8583806 64.5919251,62.4460573 59.08707,56.9107266 C58.8424098,56.664712 58.4754195,56.2956899 58.2307592,56.0496752 C57.4967786,55.1886238 57.6191087,54.0815576 58.3530894,53.3435136 C59.08707,52.6054695 60.188041,52.4824621 61.0443518,53.2205062 C61.4113422,53.4665209 61.6560024,53.8355429 61.9006626,54.0815576 C67.4055177,59.6168883 72.9103727,65.152219 78.4152278,70.6875496 C79.5161988,71.7946158 80.7395,72.4096525 82.3297914,72.0406305 C83.9200829,71.6716084 84.8987238,70.6875496 85.2657141,69.0884541 C85.7550346,67.4893586 85.143384,66.2592851 84.042413,65.152219 C78.2928977,59.493881 72.6657125,53.7125356 66.9161972,48.0541976 C65.9375563,47.0701388 65.8152262,45.8400653 66.671537,44.9790139 C67.5278478,44.1179625 68.7511489,44.2409698 69.7297898,45.2250286 C73.0327029,48.546227 76.3356159,51.744418 79.6385289,55.0656164 C82.0851312,57.5257634 84.5317334,59.9859103 86.9783357,62.4460573 C89.0579476,64.4141749 91.9938703,64.0451528 93.3395015,61.7080132 C94.3181424,60.1089177 93.9511521,58.2638075 92.4831908,56.664712 C84.6540636,48.4232196 76.7026062,40.427742 68.7511489,32.4322644 C68.6288188,32.309257 68.3841586,32.0632423 68.0171682,31.8172277 C67.772508,32.0632423 67.6501779,32.309257 67.4055177,32.5552717 C64.469595,35.5074481 61.6560024,38.4596244 58.5977496,41.2887935 C52.3589138,47.0701388 42.8171651,46.08608 37.4346401,39.3206759 C43.795806,33.0473011 50.1569718,26.650919 56.5181377,20.3775443 C46.2424082,9.9219197 28.0152214,11.3980079 19.8191039,23.452728 C14.6812392,30.9561762 14.5589091,39.0746612 17.6171619,47.3161535 C19.2074533,51.6214107 21.8987158,55.3116311 25.4462891,58.3868148 C27.525901,56.2956899 29.6055129,54.204565 31.6851248,52.1134401 C33.8870668,49.8993078 36.4559992,49.2842711 39.3919219,50.1453225 C42.3278446,51.0063739 44.2851264,52.9744915 45.0191071,55.9266679 C45.2637673,56.664712 45.2637673,57.5257634 45.3860974,58.2638075 C47.7103696,58.2638075 49.7899815,59.0018516 51.3802729,60.7239544 C53.0928945,62.4460573 53.7045451,64.5371822 53.8268752,66.7513145 C59.6987206,66.9973292 62.6346433,71.0565717 62.5123132,75.3618289 C62.7569734,75.3618289 62.8793035,75.4848362 63.0016336,75.4848362 Z" id="Shape" fill="#2F92BA"></path>
                    <path d="M96.690869,54.684749 C96.690869,54.684749 96.8131991,54.4387343 96.9355292,54.4387343 C97.1801894,54.0697122 97.4248497,53.8236975 97.6695099,53.4546755 C101.217083,48.1653595 102.807375,42.3840142 101.828734,35.9876321 C100.605433,28.1151618 96.690869,21.9647944 89.5957225,18.274574 C80.5432941,13.4772874 68.1879528,15.0763829 60.3588256,22.3338164 C54.4869802,27.7461398 49.1044552,33.5274851 43.3549399,39.1858231 L43.3549399,39.4318378 C47.0248433,42.1379995 52.5296984,41.5229627 56.0772716,38.078757 C59.3801847,34.8805659 62.5607676,31.5593675 65.8636806,28.2381691 C67.5763022,26.5160663 68.432613,26.5160663 70.1452346,28.2381691 C74.1821283,32.2974116 78.3413521,36.4796615 82.3782458,40.5389039 C87.0267901,45.0901758 91.7976645,49.8874624 96.690869,54.684749 L96.690869,54.684749 Z" id="Path" fill="#1A5F7A"></path>
                    <path d="M43.3569242,63.2992231 C41.0326521,65.3903481 38.83071,67.6044803 36.7510981,69.9416199 C35.4054669,71.5407155 35.6501271,73.7548477 37.2404186,75.2309359 C38.7083799,76.7070241 41.0326521,76.7070241 42.5006134,75.3539432 C44.5802253,73.3858257 46.6598372,71.2947008 48.617119,69.2035758 C49.8404202,67.9735024 50.0850804,66.4974142 49.3510997,64.8983187 C48.617119,63.4222305 47.3938179,62.6841864 45.314206,62.4381717 C44.6365721,62.4381717 43.9685748,62.8071937 43.3569242,63.2992231 Z" id="Path" fill="#1A5F7A"></path>
                    <path d="M58.5736731,75.0133246 C58.5736729,73.9708849 57.7173623,72.0611483 56.1270708,71.4461115 C54.5367794,70.7080675 53.068818,70.9540822 51.8455169,72.1841556 C49.8882351,74.0292659 47.9309533,75.9973834 46.0960016,77.965501 C44.38338,79.6876039 44.38338,82.0247435 45.8513414,83.623839 C47.563963,85.3459419 49.8882351,85.3459419 51.6008567,83.623839 C53.5581385,81.7787288 55.3930902,79.9336186 57.2280419,77.965501 C58.8366389,75.9800849 58.5736731,75.0133246 58.5736731,75.0133246 Z" id="Path" fill="#1A5F7A"></path>
                    <path d="M54.276801,91.528358 C56.5243237,93.8443513 58.9762089,93.1980734 60.19951,91.968 C62.1567918,89.9998824 64.2364037,88.0317648 66.1936855,85.9406399 C67.783977,84.3415444 67.6616469,82.0044048 66.1936855,80.5283166 C64.6033941,78.9292211 62.2791219,78.8062137 60.6888305,80.4053092 C58.6092185,82.3734268 56.6519367,84.3415444 54.6946549,86.4326693 C54.4308748,86.6789009 52.0292783,89.2123647 54.276801,91.528358 Z" id="Path" fill="#1A5F7A"></path>
                    <path d="M27.3321628,63.472479 C27.576823,65.3175893 28.4331338,66.5476627 29.9010951,67.2857068 C31.4913866,68.0237509 32.959348,67.7777362 34.1826491,66.5476627 C36.262261,64.5795452 38.2195428,62.4884203 40.1768246,60.5203027 C41.7671161,58.9212072 41.6447859,56.5840675 40.1768246,55.1079794 C38.5865331,53.5088838 36.262261,53.3858765 34.6719695,54.984972 C32.7146877,56.9530896 30.6350758,58.9212072 28.8001241,61.0123321 C28.0661434,61.6273688 27.6991531,62.6114276 27.3321628,63.472479 L27.3321628,63.472479 Z" id="Path" fill="#1A5F7A"></path>
                    <path d="M43.2174152,86.8896405 L16.5048783,86.8896405 L16.5048783,86.8456922 L16.464241,86.8456922 L16.464241,72.1457509 L20.4026031,72.1457509 L20.4026031,82.9512784 L40.8377744,82.9512784 C41.1874256,84.3921028 41.8902409,85.6553676 43.015643,86.7061692 C43.0823461,86.7684507 43.1496059,86.8296127 43.2174152,86.8896405 Z M70.4027639,86.8896405 L104.280099,86.8896405 L104.280099,82.9512784 L78.3284209,82.9512784 C78.3013892,82.9729303 78.2741568,82.9944873 78.2467154,83.0159488 C76.1671035,84.7380516 73.7205012,85.230081 71.0292388,84.6150443 C70.9287551,85.4570439 70.7090489,86.2068261 70.4027639,86.8896405 Z M68.0025574,13.5951565 L60.440938,6.03353708 L53.3377022,13.1367728 C52.0985971,12.4553781 50.8229526,11.8707938 49.5220318,11.3827563 L60.4380403,0.466749668 L60.440938,0.469647362 L60.4438357,0.466749668 L72.357103,12.380017 C70.8667179,12.683884 69.4161978,13.0899311 68.0025574,13.5951565 Z M104.528233,50.1208321 L118.015294,63.6078935 L120.800137,60.8230509 L105.835456,45.8583702 C105.51849,47.3150737 105.082226,48.7361576 104.528233,50.1208321 Z M13.344751,47.5600389 L0.081739044,60.8230509 L2.8665816,63.6078935 L14.9436093,51.5308657 C14.320503,50.2607548 13.7845231,48.9388852 13.344751,47.5600389 Z" id="Combined-Shape" fill="#493730"></path>
                </g>
            </g>
        </g>
    </g>
</svg>